<?xml version="1.0"?>
<svg xmlns="http://www.w3.org/2000/svg" width="128" height="128" viewBox="0 0 128 128">
  <rect width="100%" height="100%" rx="10" ry="10" fill="white" />

  <circle cx="64" cy="32" r="16" fill="black" />
  <ellipse cx="64" cy="80" rx="35" ry="40" fill="black" />

  <line stroke="black" stroke-width="4" fill="none" x1="58" y1="22" x2="50" y2="10" />
  <line stroke="black" stroke-width="4" fill="none" x1="70" y1="22" x2="78" y2="10" />
  <path stroke="black" stroke-width="4" fill="none" d="M 10 36 l 14 18 h 15" />
  <path stroke="black" stroke-width="4" fill="none" d="M 118 36 l -14 18 h -15" />
  <path stroke="black" stroke-width="4" fill="none" d="M 10 80 h 20" />
  <path stroke="black" stroke-width="4" fill="none" d="M 118 80 h -20" />
  <path stroke="black" stroke-width="4" fill="none" d="M 10 120 l 14 -18 h 15" />
  <path stroke="black" stroke-width="4" fill="none" d="M 118 120 l -14 -18 h -15" />

  <circle fill="#999999" cx="64" cy="106" r="8" />
  <path stroke="#999999" stroke-width="4" fill="none" d="M 64 98 v -62" />
  <polygon fill="#999999" points="56 36 72 36 64 26" />
  <path stroke="#999999" stroke-width="4" fill="none" d="M 64 90 l -14 -14 v -10" />
  <circle fill="#999999" cx="50" cy="66" r="5" />
  <path stroke="#999999" stroke-width="4" fill="none" d="M 64 84 l 14 -14 v -10" />
  <rect fill="#999999" x="73" y="50" width="10" height="10" />
</svg>
